<svg xmlns="http://www.w3.org/2000/svg" xmlns:xlink="http://www.w3.org/1999/xlink" contentStyleType="text/css" height="2238px" preserveAspectRatio="none" style="width:960px;height:2238px;background:#FFFFFF;" version="1.1" viewBox="0 0 960 2238" width="960px" zoomAndPan="magnify"><title>Aedes Life Cycle State Machine</title><defs/><g><text fill="#000000" font-family="sans-serif" font-size="14" font-weight="bold" lengthAdjust="spacing" textLength="247.29" x="349.4106" y="22.9951">Aedes Life Cycle State Machine</text><ellipse cx="358" cy="53.2969" fill="#222222" rx="10" ry="10" style="stroke:#222222;stroke-width:1.0;"/><path d="M120,140.2969 L595.8896,140.2969 A12.5,12.5 0 0 1 608.3896,152.7969 L608.3896,166.5938 L107.5,166.5938 L107.5,152.7969 A12.5,12.5 0 0 1 120,140.2969 " fill="#F1F1F1" style="stroke:#F1F1F1;stroke-width:1.0;"/><rect fill="none" height="361.2969" rx="12.5" ry="12.5" style="stroke:#181818;stroke-width:0.5;" width="500.8896" x="107.5" y="140.2969"/><line style="stroke:#181818;stroke-width:0.5;" x1="107.5" x2="608.3896" y1="166.5938" y2="166.5938"/><text fill="#000000" font-family="sans-serif" font-size="14" lengthAdjust="spacing" textLength="26.6191" x="344.6352" y="158.292">Egg</text><ellipse cx="343.35" cy="187.5938" fill="#222222" rx="10" ry="10" style="stroke:#222222;stroke-width:1.0;"/><g id="Egg.EggActive"><rect fill="#F1F1F1" height="64.2344" rx="12.5" ry="12.5" style="stroke:#181818;stroke-width:0.5;" width="177.3066" x="254.85" y="234.5938"/><line style="stroke:#181818;stroke-width:0.5;" x1="254.85" x2="432.1566" y1="260.8906" y2="260.8906"/><text fill="#000000" font-family="sans-serif" font-size="14" lengthAdjust="spacing" textLength="70.1709" x="308.4179" y="252.5889">EggActive</text><text fill="#000000" font-family="sans-serif" font-size="12" lengthAdjust="spacing" textLength="157.3066" x="259.85" y="277.0293">entry / resetDegreeDays()</text><text fill="#000000" font-family="sans-serif" font-size="12" lengthAdjust="spacing" textLength="156.0938" x="259.85" y="290.998">do / accumulateDD(temp)</text></g><g id="Egg.EggDiapausing"><rect fill="#F1F1F1" height="50" rx="12.5" ry="12.5" style="stroke:#181818;stroke-width:0.5;" width="125.1504" x="280.85" y="366.5938"/><line style="stroke:#181818;stroke-width:0.5;" x1="280.85" x2="406.0004" y1="392.8906" y2="392.8906"/><text fill="#000000" font-family="sans-serif" font-size="14" lengthAdjust="spacing" textLength="105.1504" x="290.85" y="384.5889">EggDiapausing</text></g><ellipse cx="444.35" cy="480.5938" fill="none" rx="11" ry="11" style="stroke:#222222;stroke-width:1.0;"/><ellipse cx="444.35" cy="480.5938" fill="#222222" rx="6" ry="6" style="stroke:#222222;stroke-width:1.0;"/><!--link *start*Egg to EggActive--><g id="link_*start*Egg_EggActive"><path d="M343.35,197.7338 C343.35,206.8138 343.35,215.2638 343.35,228.5038 " fill="none" id="*start*Egg-to-EggActive" style="stroke:#181818;stroke-width:1.0;"/><polygon fill="#181818" points="343.35,234.5038,347.35,225.5038,343.35,229.5038,339.35,225.5038,343.35,234.5038" style="stroke:#181818;stroke-width:1.0;"/></g><!--link EggActive to EggDiapausing--><g id="link_EggActive_EggDiapausing"><path d="M254.82,276.0938 C189.89,285.9138 118.5,306.4838 152.35,348.5938 C168.31,368.4438 225.18,378.7522 274.48,384.4722 " fill="none" id="EggActive-to-EggDiapausing" style="stroke:#181818;stroke-width:1.0;"/><polygon fill="#181818" points="280.44,385.1638,271.961,380.1531,275.4733,384.5875,271.039,388.0998,280.44,385.1638" style="stroke:#181818;stroke-width:1.0;"/><text fill="#000000" font-family="sans-serif" font-size="13" lengthAdjust="spacing" textLength="167.4258" x="153.35" y="337.1606">[photoperiod &lt; criticalPP]</text></g><!--link EggDiapausing to EggActive--><g id="link_EggDiapausing_EggActive"><path d="M343.35,366.5538 C343.35,347.1438 343.35,325.6938 343.35,304.6337 " fill="none" id="EggDiapausing-to-EggActive" style="stroke:#181818;stroke-width:1.0;"/><polygon fill="#181818" points="343.35,298.6337,339.35,307.6337,343.35,303.6337,347.35,307.6337,343.35,298.6337" style="stroke:#181818;stroke-width:1.0;"/><text fill="#000000" font-family="sans-serif" font-size="13" lengthAdjust="spacing" textLength="162.354" x="355.6964" y="329.6606">[photoperiod &gt; criticalPP</text><text fill="#000000" font-family="sans-serif" font-size="13" lengthAdjust="spacing" textLength="185.0469" x="344.35" y="344.7935">AND temp &gt; breakingTemp]</text></g><!--link EggActive to *end*Egg--><g id="link_EggActive_*end*Egg"><path d="M432.07,280.1438 C474.41,288.1337 518.62,300.1138 531.35,316.5938 C573.91,371.6738 486.5346,446.7954 457.4846,469.5354 " fill="none" id="EggActive-to-*end*Egg" style="stroke:#181818;stroke-width:1.0;"/><polygon fill="#181818" points="452.76,473.2338,462.3125,470.8359,456.6972,470.1518,457.3813,464.5364,452.76,473.2338" style="stroke:#181818;stroke-width:1.0;"/><text fill="#000000" font-family="sans-serif" font-size="13" lengthAdjust="spacing" textLength="59.0396" x="539.35" y="396.1606">mortality</text></g><!--link EggDiapausing to *end*Egg--><g id="link_EggDiapausing_*end*Egg"><path d="M371.22,416.5938 C393.17,435.5037 417.7744,456.6975 431.7144,468.7075 " fill="none" id="EggDiapausing-to-*end*Egg" style="stroke:#181818;stroke-width:1.0;"/><polygon fill="#181818" points="436.26,472.6238,432.0524,463.7189,432.472,469.3602,426.8307,469.7797,436.26,472.6238" style="stroke:#181818;stroke-width:1.0;"/><text fill="#000000" font-family="sans-serif" font-size="13" lengthAdjust="spacing" textLength="59.0396" x="413.35" y="447.6606">mortality</text></g><path d="M19.5,593.2969 L696.983,593.2969 A12.5,12.5 0 0 1 709.483,605.7969 L709.483,619.5938 L7,619.5938 L7,605.7969 A12.5,12.5 0 0 1 19.5,593.2969 " fill="#F1F1F1" style="stroke:#F1F1F1;stroke-width:1.0;"/><rect fill="none" height="538.2969" rx="12.5" ry="12.5" style="stroke:#181818;stroke-width:0.5;" width="702.483" x="7" y="593.2969"/><line style="stroke:#181818;stroke-width:0.5;" x1="7" x2="709.483" y1="619.5938" y2="619.5938"/><text fill="#000000" font-family="sans-serif" font-size="14" lengthAdjust="spacing" textLength="38.999" x="338.742" y="611.292">Larva</text><ellipse cx="373.36" cy="640.5938" fill="#222222" rx="10" ry="10" style="stroke:#222222;stroke-width:1.0;"/><g id="Larva.L1"><rect fill="#F1F1F1" height="50.2656" rx="12.5" ry="12.5" style="stroke:#181818;stroke-width:0.5;" width="122.9023" x="311.86" y="687.5938"/><line style="stroke:#181818;stroke-width:0.5;" x1="311.86" x2="434.7623" y1="713.8906" y2="713.8906"/><text fill="#000000" font-family="sans-serif" font-size="14" lengthAdjust="spacing" textLength="16.707" x="364.9577" y="705.5889">L1</text><text fill="#000000" font-family="sans-serif" font-size="12" lengthAdjust="spacing" textLength="102.9023" x="316.86" y="730.0293">entry / instar = 1</text></g><g id="Larva.L2"><rect fill="#F1F1F1" height="50.2656" rx="12.5" ry="12.5" style="stroke:#181818;stroke-width:0.5;" width="122.9023" x="174.86" y="790.5938"/><line style="stroke:#181818;stroke-width:0.5;" x1="174.86" x2="297.7623" y1="816.8906" y2="816.8906"/><text fill="#000000" font-family="sans-serif" font-size="14" lengthAdjust="spacing" textLength="16.707" x="227.9577" y="808.5889">L2</text><text fill="#000000" font-family="sans-serif" font-size="12" lengthAdjust="spacing" textLength="102.9023" x="179.86" y="833.0293">entry / instar = 2</text></g><ellipse cx="255.36" cy="1110.5938" fill="none" rx="11" ry="11" style="stroke:#222222;stroke-width:1.0;"/><ellipse cx="255.36" cy="1110.5938" fill="#222222" rx="6" ry="6" style="stroke:#222222;stroke-width:1.0;"/><g id="Larva.L3"><rect fill="#F1F1F1" height="50.2656" rx="12.5" ry="12.5" style="stroke:#181818;stroke-width:0.5;" width="122.9023" x="174.86" y="893.5938"/><line style="stroke:#181818;stroke-width:0.5;" x1="174.86" x2="297.7623" y1="919.8906" y2="919.8906"/><text fill="#000000" font-family="sans-serif" font-size="14" lengthAdjust="spacing" textLength="16.707" x="227.9577" y="911.5889">L3</text><text fill="#000000" font-family="sans-serif" font-size="12" lengthAdjust="spacing" textLength="102.9023" x="179.86" y="936.0293">entry / instar = 3</text></g><g id="Larva.L4"><rect fill="#F1F1F1" height="50.2656" rx="12.5" ry="12.5" style="stroke:#181818;stroke-width:0.5;" width="122.9023" x="387.86" y="996.5938"/><line style="stroke:#181818;stroke-width:0.5;" x1="387.86" x2="510.7623" y1="1022.8906" y2="1022.8906"/><text fill="#000000" font-family="sans-serif" font-size="14" lengthAdjust="spacing" textLength="16.707" x="440.9577" y="1014.5889">L4</text><text fill="#000000" font-family="sans-serif" font-size="12" lengthAdjust="spacing" textLength="102.9023" x="392.86" y="1039.0293">entry / instar = 4</text></g><!--link *start*Larva to L1--><g id="link_*start*Larva_L1"><path d="M373.36,650.7438 C373.36,660.0138 373.36,668.7338 373.36,681.3738 " fill="none" id="*start*Larva-to-L1" style="stroke:#181818;stroke-width:1.0;"/><polygon fill="#181818" points="373.36,687.3738,377.36,678.3738,373.36,682.3738,369.36,678.3738,373.36,687.3738" style="stroke:#181818;stroke-width:1.0;"/></g><!--link L1 to L2--><g id="link_L1_L2"><path d="M340.55,737.7838 C319.02,753.6637 295.7894,770.7833 274.2094,786.6933 " fill="none" id="L1-to-L2" style="stroke:#181818;stroke-width:1.0;"/><polygon fill="#181818" points="269.38,790.2538,278.9977,788.1326,273.4045,787.2867,274.2504,781.6934,269.38,790.2538" style="stroke:#181818;stroke-width:1.0;"/><text fill="#000000" font-family="sans-serif" font-size="13" lengthAdjust="spacing" textLength="202.0015" x="313.36" y="768.6606">[degreeDays &gt;= L1_threshold]</text></g><!--link L1 to *end*Larva--><g id="link_L1_*end*Larva"><path d="M435.1,717.9337 C464.3,723.0138 497.66,733.6338 520.36,755.5938 C540.16,774.7438 539.36,787.0438 539.36,814.5938 C539.36,814.5938 539.36,814.5938 539.36,1022.5938 C539.36,1050.5838 539.47,1064.4338 517.36,1081.5938 C477.43,1112.5938 317.1884,1111.0719 272.4784,1110.0419 " fill="none" id="L1-to-*end*Larva" style="stroke:#181818;stroke-width:1.0;"/><polygon fill="#181818" points="266.48,1109.9038,275.3855,1114.11,271.4787,1110.0189,275.5697,1106.1121,266.48,1109.9038" style="stroke:#181818;stroke-width:1.0;"/><text fill="#000000" font-family="sans-serif" font-size="13" lengthAdjust="spacing" textLength="159.123" x="540.36" y="923.1606">mortality(temp, density)</text></g><!--link L2 to L3--><g id="link_L2_L3"><path d="M236.36,840.7838 C236.36,856.6637 236.36,871.3438 236.36,887.2538 " fill="none" id="L2-to-L3" style="stroke:#181818;stroke-width:1.0;"/><polygon fill="#181818" points="236.36,893.2538,240.36,884.2538,236.36,888.2538,232.36,884.2538,236.36,893.2538" style="stroke:#181818;stroke-width:1.0;"/><text fill="#000000" font-family="sans-serif" font-size="13" lengthAdjust="spacing" textLength="202.0015" x="237.36" y="871.6606">[degreeDays &gt;= L2_threshold]</text></g><!--link L2 to *end*Larva--><g id="link_L2_*end*Larva"><path d="M174.84,838.2438 C108.89,865.2138 18,915.5238 52.36,978.5938 C95.51,1057.7838 203.6107,1094.6712 238.9707,1105.0012 " fill="none" id="L2-to-*end*Larva" style="stroke:#181818;stroke-width:1.0;"/><polygon fill="#181818" points="244.73,1106.6838,237.2128,1100.3205,239.9306,1105.2817,234.9694,1107.9995,244.73,1106.6838" style="stroke:#181818;stroke-width:1.0;"/><text fill="#000000" font-family="sans-serif" font-size="13" lengthAdjust="spacing" textLength="159.123" x="53.36" y="974.6606">mortality(temp, density)</text></g><!--link L3 to L4--><g id="link_L3_L4"><path d="M266.5,943.7238 C282.18,955.4238 302.06,968.9838 321.36,978.5938 C324.7,980.2538 350.751,988.8378 381.801,998.8778 " fill="none" id="L3-to-L4" style="stroke:#181818;stroke-width:1.0;"/><polygon fill="#181818" points="387.51,1000.7238,380.1772,994.1488,382.7525,999.1854,377.7159,1001.7607,387.51,1000.7238" style="stroke:#181818;stroke-width:1.0;"/><text fill="#000000" font-family="sans-serif" font-size="13" lengthAdjust="spacing" textLength="202.0015" x="322.36" y="974.6606">[degreeDays &gt;= L3_threshold]</text></g><!--link L3 to *end*Larva--><g id="link_L3_*end*Larva"><path d="M227.19,943.8338 C218.74,969.6538 208.84,1011.5638 218.36,1046.5938 C224.29,1068.3838 236.1494,1085.6087 245.0894,1096.9687 " fill="none" id="L3-to-*end*Larva" style="stroke:#181818;stroke-width:1.0;"/><polygon fill="#181818" points="248.8,1101.6838,246.3775,1092.1375,245.7078,1097.7546,240.0908,1097.0849,248.8,1101.6838" style="stroke:#181818;stroke-width:1.0;"/><text fill="#000000" font-family="sans-serif" font-size="13" lengthAdjust="spacing" textLength="159.123" x="219.36" y="1026.1606">mortality(temp, density)</text></g><!--link L4 to *end*Larva--><g id="link_L4_*end*Larva"><path d="M395.84,1046.5938 C350.3,1067.0138 294.1247,1092.2086 270.5547,1102.7786 " fill="none" id="L4-to-*end*Larva" style="stroke:#181818;stroke-width:1.0;"/><polygon fill="#181818" points="265.08,1105.2337,274.9288,1105.2008,269.6422,1103.1878,271.6553,1097.9012,265.08,1105.2337" style="stroke:#181818;stroke-width:1.0;"/><text fill="#000000" font-family="sans-serif" font-size="13" lengthAdjust="spacing" textLength="159.123" x="353.36" y="1077.6606">mortality(temp, density)</text></g><path d="M200,1223.2969 L515.5396,1223.2969 A12.5,12.5 0 0 1 528.0396,1235.7969 L528.0396,1249.5938 L187.5,1249.5938 L187.5,1235.7969 A12.5,12.5 0 0 1 200,1223.2969 " fill="#F1F1F1" style="stroke:#F1F1F1;stroke-width:1.0;"/><rect fill="none" height="332.2969" rx="12.5" ry="12.5" style="stroke:#181818;stroke-width:0.5;" width="340.5396" x="187.5" y="1223.2969"/><line style="stroke:#181818;stroke-width:0.5;" x1="187.5" x2="528.0396" y1="1249.5938" y2="1249.5938"/><text fill="#000000" font-family="sans-serif" font-size="14" lengthAdjust="spacing" textLength="34.7813" x="340.3792" y="1241.292">Pupa</text><ellipse cx="335" cy="1270.5938" fill="#222222" rx="10" ry="10" style="stroke:#222222;stroke-width:1.0;"/><g id="Pupa.PupalDevelopment"><rect fill="#F1F1F1" height="50.2656" rx="12.5" ry="12.5" style="stroke:#181818;stroke-width:0.5;" width="176.0938" x="247" y="1317.5938"/><line style="stroke:#181818;stroke-width:0.5;" x1="247" x2="423.0938" y1="1343.8906" y2="1343.8906"/><text fill="#000000" font-family="sans-serif" font-size="14" lengthAdjust="spacing" textLength="132.918" x="268.5879" y="1335.5889">PupalDevelopment</text><text fill="#000000" font-family="sans-serif" font-size="12" lengthAdjust="spacing" textLength="156.0938" x="252" y="1360.0293">do / accumulateDD(temp)</text></g><g id="Pupa.PupalMature"><rect fill="#F1F1F1" height="50.2656" rx="12.5" ry="12.5" style="stroke:#181818;stroke-width:0.5;" width="156.8984" x="199.5" y="1420.5938"/><line style="stroke:#181818;stroke-width:0.5;" x1="199.5" x2="356.3984" y1="1446.8906" y2="1446.8906"/><text fill="#000000" font-family="sans-serif" font-size="14" lengthAdjust="spacing" textLength="88.0605" x="233.9189" y="1438.5889">PupalMature</text><text fill="#000000" font-family="sans-serif" font-size="12" lengthAdjust="spacing" textLength="136.8984" x="204.5" y="1463.0293">entry / determineSex()</text></g><ellipse cx="366" cy="1534.5938" fill="none" rx="11" ry="11" style="stroke:#222222;stroke-width:1.0;"/><ellipse cx="366" cy="1534.5938" fill="#222222" rx="6" ry="6" style="stroke:#222222;stroke-width:1.0;"/><!--link *start*Pupa to PupalDevelopment--><g id="link_*start*Pupa_PupalDevelopment"><path d="M335,1280.7438 C335,1290.0138 335,1298.7337 335,1311.3738 " fill="none" id="*start*Pupa-to-PupalDevelopment" style="stroke:#181818;stroke-width:1.0;"/><polygon fill="#181818" points="335,1317.3738,339,1308.3738,335,1312.3738,331,1308.3738,335,1317.3738" style="stroke:#181818;stroke-width:1.0;"/></g><!--link PupalDevelopment to PupalMature--><g id="link_PupalDevelopment_PupalMature"><path d="M246.79,1361.4238 C235.49,1367.3338 225.33,1375.1838 218,1385.5938 C209.17,1398.1438 212.9094,1406.6849 226.0194,1416.6849 " fill="none" id="PupalDevelopment-to-PupalMature" style="stroke:#181818;stroke-width:1.0;"/><polygon fill="#181818" points="230.79,1420.3238,226.06,1411.685,226.8145,1417.2913,221.2082,1418.0458,230.79,1420.3238" style="stroke:#181818;stroke-width:1.0;"/><text fill="#000000" font-family="sans-serif" font-size="13" lengthAdjust="spacing" textLength="219.1528" x="219" y="1398.6606">[degreeDays &gt;= pupalThreshold]</text></g><!--link PupalMature to *end*Pupa--><g id="link_PupalMature_*end*Pupa"><path d="M302.51,1470.8238 C321.43,1489.5338 342.1013,1509.9774 354.3313,1522.0574 " fill="none" id="PupalMature-to-*end*Pupa" style="stroke:#181818;stroke-width:1.0;"/><polygon fill="#181818" points="358.6,1526.2738,355.0078,1517.1034,355.0427,1522.7601,349.386,1522.795,358.6,1526.2738" style="stroke:#181818;stroke-width:1.0;"/><text fill="#000000" font-family="sans-serif" font-size="13" lengthAdjust="spacing" textLength="59.0396" x="339" y="1501.6606">mortality</text></g><!--link PupalDevelopment to *end*Pupa--><g id="link_PupalDevelopment_*end*Pupa"><path d="M420.98,1367.6838 C427.99,1372.5938 434.21,1378.4938 439,1385.5938 C459.82,1416.4638 486.16,1391.4538 403,1505.5938 C395.7,1515.6238 388.9724,1520.6901 380.6424,1525.5501 " fill="none" id="PupalDevelopment-to-*end*Pupa" style="stroke:#181818;stroke-width:1.0;"/><polygon fill="#181818" points="375.46,1528.5738,385.2494,1527.4933,379.7787,1526.0541,381.2179,1520.5834,375.46,1528.5738" style="stroke:#181818;stroke-width:1.0;"/><text fill="#000000" font-family="sans-serif" font-size="13" lengthAdjust="spacing" textLength="59.0396" x="459" y="1450.1606">mortality</text></g><path d="M86.5,1647.2969 L629.0696,1647.2969 A12.5,12.5 0 0 1 641.5696,1659.7969 L641.5696,1673.5938 L74,1673.5938 L74,1659.7969 A12.5,12.5 0 0 1 86.5,1647.2969 " fill="#F1F1F1" style="stroke:#F1F1F1;stroke-width:1.0;"/><rect fill="none" height="585.2969" rx="12.5" ry="12.5" style="stroke:#181818;stroke-width:0.5;" width="567.5696" x="74" y="1647.2969"/><line style="stroke:#181818;stroke-width:0.5;" x1="74" x2="641.5696" y1="1673.5938" y2="1673.5938"/><text fill="#000000" font-family="sans-serif" font-size="14" lengthAdjust="spacing" textLength="36.7158" x="339.4269" y="1665.292">Adult</text><ellipse cx="456.53" cy="1694.5938" fill="#222222" rx="10" ry="10" style="stroke:#222222;stroke-width:1.0;"/><g id="Adult.Teneral"><rect fill="#F1F1F1" height="50.2656" rx="12.5" ry="12.5" style="stroke:#181818;stroke-width:0.5;" width="111.0723" x="401.03" y="1741.5938"/><line style="stroke:#181818;stroke-width:0.5;" x1="401.03" x2="512.1023" y1="1767.8906" y2="1767.8906"/><text fill="#000000" font-family="sans-serif" font-size="14" lengthAdjust="spacing" textLength="52.876" x="430.1281" y="1759.5889">Teneral</text><text fill="#000000" font-family="sans-serif" font-size="12" lengthAdjust="spacing" textLength="91.0723" x="406.03" y="1784.0293">entry / age = 0</text></g><g id="Adult.HostSeeking"><rect fill="#F1F1F1" height="50.2656" rx="12.5" ry="12.5" style="stroke:#181818;stroke-width:0.5;" width="111.2832" x="184.03" y="1844.5938"/><line style="stroke:#181818;stroke-width:0.5;" x1="184.03" x2="295.3132" y1="1870.8906" y2="1870.8906"/><text fill="#000000" font-family="sans-serif" font-size="14" lengthAdjust="spacing" textLength="87.7461" x="195.7986" y="1862.5889">HostSeeking</text><text fill="#000000" font-family="sans-serif" font-size="12" lengthAdjust="spacing" textLength="91.2832" x="189.03" y="1887.0293">do / seekHost()</text></g><g id="Adult.MateSeeking"><rect fill="#F1F1F1" height="50.2656" rx="12.5" ry="12.5" style="stroke:#181818;stroke-width:0.5;" width="134.2578" x="409.53" y="1912.5938"/><line style="stroke:#181818;stroke-width:0.5;" x1="409.53" x2="543.7878" y1="1938.8906" y2="1938.8906"/><text fill="#000000" font-family="sans-serif" font-size="14" lengthAdjust="spacing" textLength="90.6309" x="431.3435" y="1930.5889">MateSeeking</text><text fill="#000000" font-family="sans-serif" font-size="12" lengthAdjust="spacing" textLength="114.2578" x="414.53" y="1955.0293">do / seekFemales()</text></g><ellipse cx="346.53" cy="2211.5938" fill="none" rx="11" ry="11" style="stroke:#222222;stroke-width:1.0;"/><ellipse cx="346.53" cy="2211.5938" fill="#222222" rx="6" ry="6" style="stroke:#222222;stroke-width:1.0;"/><g id="Adult.Bloodfed"><rect fill="#F1F1F1" height="64.2344" rx="12.5" ry="12.5" style="stroke:#181818;stroke-width:0.5;" width="207.2305" x="107.03" y="1980.5938"/><line style="stroke:#181818;stroke-width:0.5;" x1="107.03" x2="314.2605" y1="2006.8906" y2="2006.8906"/><text fill="#000000" font-family="sans-serif" font-size="14" lengthAdjust="spacing" textLength="61.9404" x="179.675" y="1998.5889">Bloodfed</text><text fill="#000000" font-family="sans-serif" font-size="12" lengthAdjust="spacing" textLength="187.2305" x="112.03" y="2023.0293">entry / startGonotrophicCycle()</text><text fill="#000000" font-family="sans-serif" font-size="12" lengthAdjust="spacing" textLength="144.2344" x="112.03" y="2036.998">do / developEggs(temp)</text></g><g id="Adult.Gravid"><rect fill="#F1F1F1" height="50.2656" rx="12.5" ry="12.5" style="stroke:#181818;stroke-width:0.5;" width="174.4121" x="259.53" y="2097.5938"/><line style="stroke:#181818;stroke-width:0.5;" x1="259.53" x2="433.9421" y1="2123.8906" y2="2123.8906"/><text fill="#000000" font-family="sans-serif" font-size="14" lengthAdjust="spacing" textLength="46.2451" x="323.6135" y="2115.5889">Gravid</text><text fill="#000000" font-family="sans-serif" font-size="12" lengthAdjust="spacing" textLength="154.4121" x="264.53" y="2140.0293">do / seekOvipositionSite()</text></g><!--link *start*Adult to Teneral--><g id="link_*start*Adult_Teneral"><path d="M456.53,1704.7438 C456.53,1714.0138 456.53,1722.7337 456.53,1735.3738 " fill="none" id="*start*Adult-to-Teneral" style="stroke:#181818;stroke-width:1.0;"/><polygon fill="#181818" points="456.53,1741.3738,460.53,1732.3738,456.53,1736.3738,452.53,1732.3738,456.53,1741.3738" style="stroke:#181818;stroke-width:1.0;"/></g><!--link Teneral to HostSeeking--><g id="link_Teneral_HostSeeking"><path d="M400.88,1780.0738 C375.32,1786.9438 345.08,1796.7238 319.53,1809.5938 C300.87,1818.9837 286.6593,1828.9282 271.9193,1840.7582 " fill="none" id="Teneral-to-HostSeeking" style="stroke:#181818;stroke-width:1.0;"/><polygon fill="#181818" points="267.24,1844.5138,276.7627,1842,271.1394,1841.3841,271.7553,1835.7609,267.24,1844.5138" style="stroke:#181818;stroke-width:1.0;"/><text fill="#000000" font-family="sans-serif" font-size="13" lengthAdjust="spacing" textLength="113.915" x="320.53" y="1822.6606">[sex == FEMALE]</text></g><!--link Teneral to MateSeeking--><g id="link_Teneral_MateSeeking"><path d="M456.1,1791.7538 C456.12,1802.4538 456.45,1815.1738 457.53,1826.5938 C460.33,1856.3038 465.4177,1884.1975 469.9977,1906.3975 " fill="none" id="Teneral-to-MateSeeking" style="stroke:#181818;stroke-width:1.0;"/><polygon fill="#181818" points="471.21,1912.2738,473.309,1902.6512,470.1997,1907.3769,465.474,1904.2676,471.21,1912.2738" style="stroke:#181818;stroke-width:1.0;"/><text fill="#000000" font-family="sans-serif" font-size="13" lengthAdjust="spacing" textLength="98.2236" x="458.53" y="1822.6606">[sex == MALE]</text></g><!--link Teneral to *end*Adult--><g id="link_Teneral_*end*Adult"><path d="M512.25,1780.2337 C528.91,1786.5238 545.84,1795.8538 557.53,1809.5938 C574.99,1830.1238 571.53,1841.6438 571.53,1868.5938 C571.53,1868.5938 571.53,1868.5938 571.53,2123.5938 C571.53,2170.0838 408.2384,2200.3774 363.2984,2207.8674 " fill="none" id="Teneral-to-*end*Adult" style="stroke:#181818;stroke-width:1.0;"/><polygon fill="#181818" points="357.38,2208.8538,366.9151,2211.3197,362.312,2208.0318,365.5999,2203.4286,357.38,2208.8538" style="stroke:#181818;stroke-width:1.0;"/><text fill="#000000" font-family="sans-serif" font-size="13" lengthAdjust="spacing" textLength="59.0396" x="572.53" y="2017.1606">mortality</text></g><!--link MateSeeking to *end*Adult--><g id="link_MateSeeking_*end*Adult"><path d="M477.74,1962.8738 C478.71,2003.7038 476,2087.5538 442.53,2147.5938 C432.41,2165.7438 428.36,2170.4138 411.53,2182.5938 C394.2,2195.1237 376.1376,2201.7988 362.6676,2205.9188 " fill="none" id="MateSeeking-to-*end*Adult" style="stroke:#181818;stroke-width:1.0;"/><polygon fill="#181818" points="356.93,2207.6738,366.7064,2208.8664,361.7113,2206.2113,364.3665,2201.2163,356.93,2207.6738" style="stroke:#181818;stroke-width:1.0;"/><text fill="#000000" font-family="sans-serif" font-size="13" lengthAdjust="spacing" textLength="59.0396" x="471.53" y="2075.6606">mortality</text></g><!--link HostSeeking to Bloodfed--><g id="link_HostSeeking_Bloodfed"><path d="M234.54,1894.8338 C229.67,1918.5338 223.4273,1948.8465 218.1273,1974.6465 " fill="none" id="HostSeeking-to-Bloodfed" style="stroke:#181818;stroke-width:1.0;"/><polygon fill="#181818" points="216.92,1980.5238,222.6492,1972.5127,217.9261,1975.626,214.8128,1970.9029,216.92,1980.5238" style="stroke:#181818;stroke-width:1.0;"/><text fill="#000000" font-family="sans-serif" font-size="13" lengthAdjust="spacing" textLength="130.7363" x="231.53" y="1942.1606">[bloodmealSuccess]</text></g><!--link HostSeeking to *end*Adult--><g id="link_HostSeeking_*end*Adult"><path d="M188.55,1894.7337 C155.97,1913.2138 116.4,1942.0938 97.53,1980.5938 C85,2006.1338 91.81,2016.7337 97.53,2044.5938 C113.19,2120.8838 137.67,2144.3638 205.53,2182.5938 C249.01,2207.0938 304.6104,2210.3386 329.4804,2210.6086 " fill="none" id="HostSeeking-to-*end*Adult" style="stroke:#181818;stroke-width:1.0;"/><polygon fill="#181818" points="335.48,2210.6738,326.524,2206.5763,330.4803,2210.6195,326.4371,2214.5758,335.48,2210.6738" style="stroke:#181818;stroke-width:1.0;"/><text fill="#000000" font-family="sans-serif" font-size="13" lengthAdjust="spacing" textLength="59.0396" x="107.53" y="2075.6606">mortality</text></g><!--link Bloodfed to Gravid--><g id="link_Bloodfed_Gravid"><path d="M188.52,2044.9038 C183.11,2056.6338 180.8,2069.5438 188.53,2079.5938 C197.95,2091.8538 222.1356,2100.0252 253.5256,2106.8152 " fill="none" id="Bloodfed-to-Gravid" style="stroke:#181818;stroke-width:1.0;"/><polygon fill="#181818" points="259.39,2108.0838,251.4391,2102.2714,254.503,2107.0266,249.7478,2110.0905,259.39,2108.0838" style="stroke:#181818;stroke-width:1.0;"/><text fill="#000000" font-family="sans-serif" font-size="13" lengthAdjust="spacing" textLength="186.3672" x="189.53" y="2075.6606">[gonotrophicCycleComplete]</text></g><!--link Bloodfed to *end*Adult--><g id="link_Bloodfed_*end*Adult"><path d="M187.99,2044.8338 C184.91,2050.5038 182.23,2056.5438 180.53,2062.5938 C173.71,2086.7838 175.01,2128.9038 189.53,2147.5938 C226.82,2195.6038 300.4751,2206.6159 329.5951,2209.2859 " fill="none" id="Bloodfed-to-*end*Adult" style="stroke:#181818;stroke-width:1.0;"/><polygon fill="#181818" points="335.57,2209.8338,326.9728,2205.0287,330.5909,2209.3772,326.2424,2212.9953,335.57,2209.8338" style="stroke:#181818;stroke-width:1.0;"/><text fill="#000000" font-family="sans-serif" font-size="13" lengthAdjust="spacing" textLength="59.0396" x="190.53" y="2127.1606">mortality</text></g><!--link Gravid to HostSeeking--><g id="link_Gravid_HostSeeking"><path d="M367.69,2097.2138 C371.32,2091.7438 374.56,2085.7338 376.53,2079.5938 C387.87,2044.1938 389.29,1941.9837 366.53,1912.5938 C349.6,1890.7438 326.8561,1881.2973 301.0561,1876.1973 " fill="none" id="Gravid-to-HostSeeking" style="stroke:#181818;stroke-width:1.0;"/><polygon fill="#181818" points="295.17,1875.0338,303.2235,1880.7031,300.0751,1876.0034,304.7748,1872.855,295.17,1875.0338" style="stroke:#181818;stroke-width:1.0;"/><text fill="#000000" font-family="sans-serif" font-size="13" lengthAdjust="spacing" textLength="84.5698" x="384.53" y="2017.1606">oviposit(site)</text></g><!--link Gravid to *end*Adult--><g id="link_Gravid_*end*Adult"><path d="M346.53,2147.8238 C346.53,2165.1237 346.53,2181.5138 346.53,2194.3438 " fill="none" id="Gravid-to-*end*Adult" style="stroke:#181818;stroke-width:1.0;"/><polygon fill="#181818" points="346.53,2200.3438,350.53,2191.3438,346.53,2195.3438,342.53,2191.3438,346.53,2200.3438" style="stroke:#181818;stroke-width:1.0;"/><text fill="#000000" font-family="sans-serif" font-size="13" lengthAdjust="spacing" textLength="59.0396" x="347.53" y="2178.6606">mortality</text></g><g id="elem_GMN60"><path d="M644,293.2969 L644,316.7969 L608.67,320.7969 L644,324.7969 L644,348.6953 A0,0 0 0 0 644,348.6953 L786.1006,348.6953 A0,0 0 0 0 786.1006,348.6953 L786.1006,303.2969 L776.1006,293.2969 L644,293.2969 A0,0 0 0 0 644,293.2969 " fill="#FEFFDD" style="stroke:#181818;stroke-width:0.5;"/><path d="M776.1006,293.2969 L776.1006,303.2969 L786.1006,303.2969 L776.1006,293.2969 " fill="#FEFFDD" style="stroke:#181818;stroke-width:0.5;"/><text fill="#000000" font-family="sans-serif" font-size="13" lengthAdjust="spacing" textLength="115.7876" x="650" y="310.3638">Diapause enables</text><text fill="#000000" font-family="sans-serif" font-size="13" lengthAdjust="spacing" textLength="105.9995" x="650" y="325.4966">overwintering in</text><text fill="#000000" font-family="sans-serif" font-size="13" lengthAdjust="spacing" textLength="121.1006" x="650" y="340.6294">temperate species</text></g><g id="elem_GMN63"><path d="M744.5,834.7969 L744.5,858.2969 L709.47,862.2969 L744.5,866.2969 L744.5,890.1953 A0,0 0 0 0 744.5,890.1953 L953.1113,890.1953 A0,0 0 0 0 953.1113,890.1953 L953.1113,844.7969 L943.1113,834.7969 L744.5,834.7969 A0,0 0 0 0 744.5,834.7969 " fill="#FEFFDD" style="stroke:#181818;stroke-width:0.5;"/><path d="M943.1113,834.7969 L943.1113,844.7969 L953.1113,844.7969 L943.1113,834.7969 " fill="#FEFFDD" style="stroke:#181818;stroke-width:0.5;"/><text fill="#000000" font-family="sans-serif" font-size="13" lengthAdjust="spacing" textLength="187.6113" x="750.5" y="851.8638">Density-dependent mortality</text><text fill="#000000" font-family="sans-serif" font-size="13" lengthAdjust="spacing" textLength="133.8911" x="750.5" y="866.9966">increases with larval</text><text fill="#000000" font-family="sans-serif" font-size="13" lengthAdjust="spacing" textLength="177.9756" x="750.5" y="882.1294">abundance in breeding site</text></g><g id="elem_GMN66"><path d="M677.5,1912.2969 L677.5,1935.7969 L642.12,1939.7969 L677.5,1943.7969 L677.5,1967.6953 A0,0 0 0 0 677.5,1967.6953 L818.6484,1967.6953 A0,0 0 0 0 818.6484,1967.6953 L818.6484,1922.2969 L808.6484,1912.2969 L677.5,1912.2969 A0,0 0 0 0 677.5,1912.2969 " fill="#FEFFDD" style="stroke:#181818;stroke-width:0.5;"/><path d="M808.6484,1912.2969 L808.6484,1922.2969 L818.6484,1922.2969 L808.6484,1912.2969 " fill="#FEFFDD" style="stroke:#181818;stroke-width:0.5;"/><text fill="#000000" font-family="sans-serif" font-size="13" lengthAdjust="spacing" textLength="120.1484" x="683.5" y="1929.3638">Sex determination</text><text fill="#000000" font-family="sans-serif" font-size="13" lengthAdjust="spacing" textLength="100.2549" x="683.5" y="1944.4966">occurs at pupal</text><text fill="#000000" font-family="sans-serif" font-size="13" lengthAdjust="spacing" textLength="73.6392" x="683.5" y="1959.6294">emergence</text></g><!--link *start* to Egg--><g id="link_*start*_Egg"><path d="M358,63.4369 C358,77.5269 358,100.4569 358,133.9869 " fill="none" id="*start*-to-Egg" style="stroke:#181818;stroke-width:1.0;"/><polygon fill="#181818" points="358,139.9869,362,130.9869,358,134.9869,354,130.9869,358,139.9869" style="stroke:#181818;stroke-width:1.0;"/><text fill="#000000" font-family="sans-serif" font-size="13" lengthAdjust="spacing" textLength="70.751" x="359" y="106.3638">oviposition</text></g><!--link Egg to Larva--><g id="link_Egg_Larva"><path d="M358,501.4469 C358,530.8669 358,555.9069 358,586.9269 " fill="none" id="Egg-to-Larva" style="stroke:#181818;stroke-width:1.0;"/><polygon fill="#181818" points="358,592.9269,362,583.9269,358,587.9269,354,583.9269,358,592.9269" style="stroke:#181818;stroke-width:1.0;"/><text fill="#000000" font-family="sans-serif" font-size="13" lengthAdjust="spacing" textLength="214.4492" x="359" y="544.3638">[degreeDays &gt;= hatchThreshold</text><text fill="#000000" font-family="sans-serif" font-size="13" lengthAdjust="spacing" textLength="195.4189" x="368.5151" y="559.4966">AND moisture &gt; minMoisture]</text></g><!--link Larva to Pupa--><g id="link_Larva_Pupa"><path d="M358,1131.5669 C358,1162.7569 358,1187.8369 358,1217.0369 " fill="none" id="Larva-to-Pupa" style="stroke:#181818;stroke-width:1.0;"/><polygon fill="#181818" points="358,1223.0369,362,1214.0369,358,1218.0369,354,1214.0369,358,1223.0369" style="stroke:#181818;stroke-width:1.0;"/><text fill="#000000" font-family="sans-serif" font-size="13" lengthAdjust="spacing" textLength="80.4248" x="433.6326" y="1174.3638">[instar == 4</text><text fill="#000000" font-family="sans-serif" font-size="13" lengthAdjust="spacing" textLength="229.6899" x="359" y="1189.4966">AND degreeDays &gt;= L4_threshold]</text></g><!--link Pupa to Adult--><g id="link_Pupa_Adult"><path d="M358,1555.6069 C358,1584.7069 358,1609.7569 358,1641.1169 " fill="none" id="Pupa-to-Adult" style="stroke:#181818;stroke-width:1.0;"/><polygon fill="#181818" points="358,1647.1169,362,1638.1169,358,1642.1169,354,1638.1169,358,1647.1169" style="stroke:#181818;stroke-width:1.0;"/><text fill="#000000" font-family="sans-serif" font-size="13" lengthAdjust="spacing" textLength="60.3979" x="359" y="1598.3638">emerge()</text><text fill="#000000" font-family="sans-serif" font-size="13" lengthAdjust="spacing" textLength="57.4526" x="360.4727" y="1613.4966">[mature]</text></g><!--SRC=[ZLPDRzim3BtdL-YO32ksV9oAjK3MjDqXsGeajzOOL8kDXTgI8SbfWs7_VQJak8hY3WKI828V-Pv8KOgJhWGs1m6MBUKJiAjzZeQrumxOYkU5L30Ot7_AsDdP9RlURjavqpjPQokTr6emi1v9ZZy3nYBWF7To1sZ3JxV4Q53ExDaNPi22My3M02putWv72Kve1F4yRwgcH8h5OkYWgaTfmfPj8NdD6oiL2Rol2-rq3KPgmRwntA3Md9TtTra8ZS17OjFGooZqGSr_BXX9GFEZ0VwCuHjSPdsAg0xdhDB6yLAwVIzjYlax650PoRNaPiT9ZUZgmoulMC5TNcmAh5oXIn4KLLfQrnX0LPLKgtQL7HeJCiMjMOw3uEKuQePK23ViWes3nmCdfmgMuz_km9-zGPEj-4vzPW8Kdf9zspAVxeHl4ZoURzh3Dqdu9X_dc_RnJOF7yyrw-AO9t_JZVBC-lbdmV209jZyqYx1tJUtxVyY3YKAx4xcpM6xRSXyRTvmCvG9sKEgwGeL1RshzxyYTWBkyA-vFtqabQt9kubeUqdGHXs89S63myC8QNeUZ1DO_JRrwUWRAru9ySz6Kj4Mem6nXE7fGznK_cfI0YEks0GM6bq5wkuXayorWWxz6FWhweQrR0potDv65L-hUpVLglhpE4Ynk4KwnVSZJ2k3dEDmtp-Bo1YfUGhXGOyYxUOubTtd8x9F4VaholTHQF84WpO_qkm9Uhfiy1skp7dmlQPJaK50wwkvMA-sChWkP-wV8AuZ0Nfu8dSVhqdP7jCCGvQtXE-a5RfDyLxggIpnmMHhIgxBBqrNbrzlZjvOko6jHf-q_l9H3_4A2x3cjg1IOaTl2CVr4BmP6j8y6O9Nu8xOLJNe7vaKg71fYaGfDL0GyB1XkQyWbma09HldIhFwEeRpXtZaJK2EKHYZUkbGvFd4M_nIyI5Umae9e4FXZemHNEI22Na4G985szowXdoiCnU7k9ftx_mwu4xnhZ6NSXUi2BM4-aU0jtpy0]--></g></svg>